<mxfile modified="2024-02-13T07:14:15.019Z" host="app.diagrams.net" agent="Mozilla/5.0 (Windows NT 10.0; Win64; x64) AppleWebKit/537.36 (KHTML, like Gecko) Chrome/121.0.0.0 Safari/537.36" etag="t4xuSy73UOGZLyXvk1Jz" version="23.1.3" type="github">
  <diagram id="Ht1M8jgEwFfnCIfOTk4-" name="Page-1">
    <mxGraphModel dx="2514" dy="390" grid="1" gridSize="10" guides="1" tooltips="1" connect="1" arrows="1" fold="1" page="1" pageScale="1" pageWidth="1169" pageHeight="827" math="0" shadow="0">
      <root>
        <mxCell id="0" />
        <mxCell id="1" parent="0" />
        <mxCell id="n_Ng3383ONINiVb1YW3M-2" value="Mobile client" style="sketch=0;outlineConnect=0;fontColor=#232F3E;gradientColor=none;strokeColor=#232F3E;fillColor=#ffffff;dashed=0;verticalLabelPosition=bottom;verticalAlign=top;align=center;html=1;fontSize=12;fontStyle=0;aspect=fixed;shape=mxgraph.aws4.resourceIcon;resIcon=mxgraph.aws4.mobile_client;" parent="1" vertex="1">
          <mxGeometry x="250" y="1200" width="60" height="60" as="geometry" />
        </mxCell>
        <mxCell id="n_Ng3383ONINiVb1YW3M-3" value="" style="image;aspect=fixed;perimeter=ellipsePerimeter;html=1;align=center;shadow=0;dashed=0;spacingTop=3;image=img/lib/active_directory/laptop_client.svg;" parent="1" vertex="1">
          <mxGeometry x="257.5" y="1340" width="45" height="50" as="geometry" />
        </mxCell>
        <mxCell id="n_Ng3383ONINiVb1YW3M-4" value="" style="outlineConnect=0;dashed=0;verticalLabelPosition=bottom;verticalAlign=top;align=center;html=1;shape=mxgraph.aws3.application_load_balancer;fillColor=#F58536;gradientColor=none;" parent="1" vertex="1">
          <mxGeometry x="461" y="1268" width="80" height="72" as="geometry" />
        </mxCell>
        <mxCell id="n_Ng3383ONINiVb1YW3M-7" style="edgeStyle=orthogonalEdgeStyle;rounded=0;orthogonalLoop=1;jettySize=auto;html=1;entryX=0.5;entryY=0;entryDx=0;entryDy=0;entryPerimeter=0;startArrow=block;startFill=1;" parent="1" source="n_Ng3383ONINiVb1YW3M-2" target="n_Ng3383ONINiVb1YW3M-4" edge="1">
          <mxGeometry relative="1" as="geometry" />
        </mxCell>
        <mxCell id="n_Ng3383ONINiVb1YW3M-8" style="edgeStyle=orthogonalEdgeStyle;rounded=0;orthogonalLoop=1;jettySize=auto;html=1;entryX=0.5;entryY=1;entryDx=0;entryDy=0;entryPerimeter=0;startArrow=block;startFill=1;" parent="1" source="n_Ng3383ONINiVb1YW3M-3" target="n_Ng3383ONINiVb1YW3M-4" edge="1">
          <mxGeometry relative="1" as="geometry" />
        </mxCell>
        <mxCell id="n_Ng3383ONINiVb1YW3M-27" value="" style="group" parent="1" vertex="1" connectable="0">
          <mxGeometry x="590.5" y="1480" width="190" height="310" as="geometry" />
        </mxCell>
        <mxCell id="n_Ng3383ONINiVb1YW3M-28" value="" style="image;aspect=fixed;html=1;points=[];align=center;fontSize=12;image=img/lib/azure2/security/Multifactor_Authentication.svg;" parent="n_Ng3383ONINiVb1YW3M-27" vertex="1">
          <mxGeometry x="67.29999999999995" y="160" width="55.400000000000006" height="68" as="geometry" />
        </mxCell>
        <mxCell id="n_Ng3383ONINiVb1YW3M-29" value="" style="rounded=0;whiteSpace=wrap;html=1;fillColor=none;movable=1;resizable=1;rotatable=1;deletable=1;editable=1;locked=0;connectable=1;" parent="n_Ng3383ONINiVb1YW3M-27" vertex="1">
          <mxGeometry width="190" height="310" as="geometry" />
        </mxCell>
        <mxCell id="n_Ng3383ONINiVb1YW3M-30" value="" style="group" parent="n_Ng3383ONINiVb1YW3M-27" vertex="1" connectable="0">
          <mxGeometry x="40" y="10" width="100" height="130" as="geometry" />
        </mxCell>
        <mxCell id="n_Ng3383ONINiVb1YW3M-31" value="" style="sketch=0;outlineConnect=0;fontColor=#232F3E;gradientColor=none;fillColor=#ED7100;strokeColor=none;dashed=0;verticalLabelPosition=bottom;verticalAlign=top;align=center;html=1;fontSize=12;fontStyle=0;aspect=fixed;pointerEvents=1;shape=mxgraph.aws4.auto_scaling2;" parent="n_Ng3383ONINiVb1YW3M-30" vertex="1">
          <mxGeometry width="100" height="100" as="geometry" />
        </mxCell>
        <mxCell id="n_Ng3383ONINiVb1YW3M-32" value="Auto Scaling" style="text;html=1;align=center;verticalAlign=middle;whiteSpace=wrap;rounded=0;fontSize=16;fontStyle=1" parent="n_Ng3383ONINiVb1YW3M-30" vertex="1">
          <mxGeometry y="100" width="100" height="30" as="geometry" />
        </mxCell>
        <mxCell id="n_Ng3383ONINiVb1YW3M-33" value="Authentication &amp;amp;&lt;br&gt;Authorization Service&lt;br&gt;" style="text;html=1;align=center;verticalAlign=middle;whiteSpace=wrap;rounded=0;fontSize=16;fontStyle=1" parent="n_Ng3383ONINiVb1YW3M-27" vertex="1">
          <mxGeometry x="40" y="247" width="100" height="30" as="geometry" />
        </mxCell>
        <mxCell id="n_Ng3383ONINiVb1YW3M-42" value="" style="group" parent="1" vertex="1" connectable="0">
          <mxGeometry x="920" y="1480" width="190" height="310" as="geometry" />
        </mxCell>
        <mxCell id="n_Ng3383ONINiVb1YW3M-20" value="" style="rounded=0;whiteSpace=wrap;html=1;fillColor=none;movable=1;resizable=1;rotatable=1;deletable=1;editable=1;locked=0;connectable=1;" parent="n_Ng3383ONINiVb1YW3M-42" vertex="1">
          <mxGeometry width="190" height="310" as="geometry" />
        </mxCell>
        <mxCell id="n_Ng3383ONINiVb1YW3M-21" value="" style="group" parent="n_Ng3383ONINiVb1YW3M-42" vertex="1" connectable="0">
          <mxGeometry x="45" y="20" width="100" height="130" as="geometry" />
        </mxCell>
        <mxCell id="n_Ng3383ONINiVb1YW3M-22" value="" style="sketch=0;outlineConnect=0;fontColor=#232F3E;gradientColor=none;fillColor=#ED7100;strokeColor=none;dashed=0;verticalLabelPosition=bottom;verticalAlign=top;align=center;html=1;fontSize=12;fontStyle=0;aspect=fixed;pointerEvents=1;shape=mxgraph.aws4.auto_scaling2;" parent="n_Ng3383ONINiVb1YW3M-21" vertex="1">
          <mxGeometry width="100" height="100" as="geometry" />
        </mxCell>
        <mxCell id="n_Ng3383ONINiVb1YW3M-23" value="Auto Scaling" style="text;html=1;align=center;verticalAlign=middle;whiteSpace=wrap;rounded=0;fontSize=16;fontStyle=1" parent="n_Ng3383ONINiVb1YW3M-21" vertex="1">
          <mxGeometry y="100" width="100" height="30" as="geometry" />
        </mxCell>
        <mxCell id="n_Ng3383ONINiVb1YW3M-25" value="Notification Service" style="text;html=1;align=center;verticalAlign=middle;whiteSpace=wrap;rounded=0;fontSize=16;fontStyle=1" parent="n_Ng3383ONINiVb1YW3M-42" vertex="1">
          <mxGeometry x="45" y="257" width="100" height="30" as="geometry" />
        </mxCell>
        <mxCell id="n_Ng3383ONINiVb1YW3M-41" value="" style="sketch=0;points=[[0,0,0],[0.25,0,0],[0.5,0,0],[0.75,0,0],[1,0,0],[0,1,0],[0.25,1,0],[0.5,1,0],[0.75,1,0],[1,1,0],[0,0.25,0],[0,0.5,0],[0,0.75,0],[1,0.25,0],[1,0.5,0],[1,0.75,0]];outlineConnect=0;fontColor=#232F3E;fillColor=#E7157B;strokeColor=#ffffff;dashed=0;verticalLabelPosition=bottom;verticalAlign=top;align=center;html=1;fontSize=12;fontStyle=0;aspect=fixed;shape=mxgraph.aws4.resourceIcon;resIcon=mxgraph.aws4.sns;" parent="n_Ng3383ONINiVb1YW3M-42" vertex="1">
          <mxGeometry x="57" y="161" width="78" height="78" as="geometry" />
        </mxCell>
        <mxCell id="n_Ng3383ONINiVb1YW3M-46" value="" style="group" parent="1" vertex="1" connectable="0">
          <mxGeometry x="648" y="860" width="130" height="300" as="geometry" />
        </mxCell>
        <mxCell id="n_Ng3383ONINiVb1YW3M-37" value="" style="group" parent="n_Ng3383ONINiVb1YW3M-46" vertex="1" connectable="0">
          <mxGeometry width="130" height="300" as="geometry" />
        </mxCell>
        <mxCell id="n_Ng3383ONINiVb1YW3M-38" value="" style="sketch=0;outlineConnect=0;fontColor=#232F3E;gradientColor=none;fillColor=#ED7100;strokeColor=none;dashed=0;verticalLabelPosition=bottom;verticalAlign=top;align=center;html=1;fontSize=12;fontStyle=0;aspect=fixed;pointerEvents=1;shape=mxgraph.aws4.auto_scaling2;" parent="n_Ng3383ONINiVb1YW3M-37" vertex="1">
          <mxGeometry width="100" height="100" as="geometry" />
        </mxCell>
        <mxCell id="n_Ng3383ONINiVb1YW3M-39" value="Auto Scaling" style="text;html=1;align=center;verticalAlign=middle;whiteSpace=wrap;rounded=0;fontSize=16;fontStyle=1" parent="n_Ng3383ONINiVb1YW3M-37" vertex="1">
          <mxGeometry y="100" width="100" height="30" as="geometry" />
        </mxCell>
        <mxCell id="n_Ng3383ONINiVb1YW3M-36" value="" style="rounded=0;whiteSpace=wrap;html=1;fillColor=none;movable=1;resizable=1;rotatable=1;deletable=1;editable=1;locked=0;connectable=1;" parent="n_Ng3383ONINiVb1YW3M-37" vertex="1">
          <mxGeometry x="-58" y="-11" width="190" height="310" as="geometry" />
        </mxCell>
        <mxCell id="n_Ng3383ONINiVb1YW3M-40" value="Wallet and Beneficiary management&amp;nbsp; Service" style="text;html=1;align=center;verticalAlign=middle;whiteSpace=wrap;rounded=0;fontSize=16;fontStyle=1" parent="n_Ng3383ONINiVb1YW3M-46" vertex="1">
          <mxGeometry y="240" width="100" height="30" as="geometry" />
        </mxCell>
        <mxCell id="n_Ng3383ONINiVb1YW3M-45" value="" style="shape=image;html=1;verticalAlign=top;verticalLabelPosition=bottom;labelBackgroundColor=#ffffff;imageAspect=0;aspect=fixed;image=https://cdn1.iconfinder.com/data/icons/icons-for-a-site-1/64/advantage_wallet-128.png" parent="n_Ng3383ONINiVb1YW3M-46" vertex="1">
          <mxGeometry x="6" y="130" width="88" height="88" as="geometry" />
        </mxCell>
        <mxCell id="n_Ng3383ONINiVb1YW3M-56" style="edgeStyle=orthogonalEdgeStyle;rounded=0;orthogonalLoop=1;jettySize=auto;html=1;startArrow=block;startFill=1;" parent="1" source="n_Ng3383ONINiVb1YW3M-48" edge="1">
          <mxGeometry relative="1" as="geometry">
            <mxPoint x="1015" y="1480" as="targetPoint" />
          </mxGeometry>
        </mxCell>
        <mxCell id="n_Ng3383ONINiVb1YW3M-48" value="" style="sketch=0;points=[[0,0,0],[0.25,0,0],[0.5,0,0],[0.75,0,0],[1,0,0],[0,1,0],[0.25,1,0],[0.5,1,0],[0.75,1,0],[1,1,0],[0,0.25,0],[0,0.5,0],[0,0.75,0],[1,0.25,0],[1,0.5,0],[1,0.75,0]];outlineConnect=0;fontColor=#232F3E;fillColor=#8C4FFF;strokeColor=#ffffff;dashed=0;verticalLabelPosition=bottom;verticalAlign=top;align=center;html=1;fontSize=12;fontStyle=0;aspect=fixed;shape=mxgraph.aws4.resourceIcon;resIcon=mxgraph.aws4.api_gateway;" parent="1" vertex="1">
          <mxGeometry x="646.5" y="1265" width="78" height="78" as="geometry" />
        </mxCell>
        <mxCell id="n_Ng3383ONINiVb1YW3M-50" value="" style="group" parent="1" vertex="1" connectable="0">
          <mxGeometry x="1120" y="1040" width="190" height="310" as="geometry" />
        </mxCell>
        <mxCell id="n_Ng3383ONINiVb1YW3M-12" value="" style="rounded=0;whiteSpace=wrap;html=1;fillColor=none;" parent="n_Ng3383ONINiVb1YW3M-50" vertex="1">
          <mxGeometry width="190" height="310" as="geometry" />
        </mxCell>
        <mxCell id="n_Ng3383ONINiVb1YW3M-18" value="" style="group" parent="n_Ng3383ONINiVb1YW3M-50" vertex="1" connectable="0">
          <mxGeometry x="40" width="100" height="130" as="geometry" />
        </mxCell>
        <mxCell id="n_Ng3383ONINiVb1YW3M-11" value="" style="sketch=0;outlineConnect=0;fontColor=#232F3E;gradientColor=none;fillColor=#ED7100;strokeColor=none;dashed=0;verticalLabelPosition=bottom;verticalAlign=top;align=center;html=1;fontSize=12;fontStyle=0;aspect=fixed;pointerEvents=1;shape=mxgraph.aws4.auto_scaling2;" parent="n_Ng3383ONINiVb1YW3M-18" vertex="1">
          <mxGeometry width="100" height="100" as="geometry" />
        </mxCell>
        <mxCell id="n_Ng3383ONINiVb1YW3M-14" value="Auto Scaling" style="text;html=1;align=center;verticalAlign=middle;whiteSpace=wrap;rounded=0;fontSize=16;fontStyle=1" parent="n_Ng3383ONINiVb1YW3M-18" vertex="1">
          <mxGeometry y="100" width="100" height="30" as="geometry" />
        </mxCell>
        <mxCell id="n_Ng3383ONINiVb1YW3M-19" value="" style="group;labelBorderColor=default;strokeColor=none;" parent="n_Ng3383ONINiVb1YW3M-50" vertex="1" connectable="0">
          <mxGeometry x="40" y="140" width="100" height="140" as="geometry" />
        </mxCell>
        <mxCell id="n_Ng3383ONINiVb1YW3M-9" value="" style="sketch=0;points=[[0,0,0],[0.25,0,0],[0.5,0,0],[0.75,0,0],[1,0,0],[0,1,0],[0.25,1,0],[0.5,1,0],[0.75,1,0],[1,1,0],[0,0.25,0],[0,0.5,0],[0,0.75,0],[1,0.25,0],[1,0.5,0],[1,0.75,0]];outlineConnect=0;fontColor=#232F3E;fillColor=#C925D1;strokeColor=#ffffff;dashed=0;verticalLabelPosition=bottom;verticalAlign=top;align=center;html=1;fontSize=12;fontStyle=0;aspect=fixed;shape=mxgraph.aws4.resourceIcon;resIcon=mxgraph.aws4.managed_services;" parent="n_Ng3383ONINiVb1YW3M-19" vertex="1">
          <mxGeometry x="11" width="78" height="78" as="geometry" />
        </mxCell>
        <mxCell id="n_Ng3383ONINiVb1YW3M-17" value="Transaction Service" style="text;html=1;align=center;verticalAlign=middle;whiteSpace=wrap;rounded=0;fontSize=16;fontStyle=1" parent="n_Ng3383ONINiVb1YW3M-19" vertex="1">
          <mxGeometry y="107.1875" width="100" height="32.8125" as="geometry" />
        </mxCell>
        <mxCell id="n_Ng3383ONINiVb1YW3M-51" style="edgeStyle=orthogonalEdgeStyle;rounded=0;orthogonalLoop=1;jettySize=auto;html=1;entryX=0;entryY=0.5;entryDx=0;entryDy=0;entryPerimeter=0;startArrow=block;startFill=1;" parent="1" source="n_Ng3383ONINiVb1YW3M-4" target="n_Ng3383ONINiVb1YW3M-48" edge="1">
          <mxGeometry relative="1" as="geometry" />
        </mxCell>
        <mxCell id="n_Ng3383ONINiVb1YW3M-52" style="edgeStyle=orthogonalEdgeStyle;rounded=0;orthogonalLoop=1;jettySize=auto;html=1;entryX=0.5;entryY=1;entryDx=0;entryDy=0;entryPerimeter=0;startArrow=block;startFill=1;" parent="1" source="n_Ng3383ONINiVb1YW3M-29" target="n_Ng3383ONINiVb1YW3M-48" edge="1">
          <mxGeometry relative="1" as="geometry" />
        </mxCell>
        <mxCell id="n_Ng3383ONINiVb1YW3M-53" style="edgeStyle=orthogonalEdgeStyle;rounded=0;orthogonalLoop=1;jettySize=auto;html=1;entryX=0.5;entryY=0;entryDx=0;entryDy=0;entryPerimeter=0;startArrow=block;startFill=1;" parent="1" source="n_Ng3383ONINiVb1YW3M-36" target="n_Ng3383ONINiVb1YW3M-48" edge="1">
          <mxGeometry relative="1" as="geometry" />
        </mxCell>
        <mxCell id="n_Ng3383ONINiVb1YW3M-55" style="edgeStyle=orthogonalEdgeStyle;rounded=0;orthogonalLoop=1;jettySize=auto;html=1;entryX=1;entryY=0;entryDx=0;entryDy=0;entryPerimeter=0;startArrow=block;startFill=1;" parent="1" source="n_Ng3383ONINiVb1YW3M-12" target="n_Ng3383ONINiVb1YW3M-48" edge="1">
          <mxGeometry relative="1" as="geometry" />
        </mxCell>
        <mxCell id="n_Ng3383ONINiVb1YW3M-57" value="" style="image;aspect=fixed;perimeter=ellipsePerimeter;html=1;align=center;shadow=0;dashed=0;fontColor=#4277BB;labelBackgroundColor=default;fontSize=12;spacingTop=3;image=img/lib/ibm/blockchain/blockchain.svg;" parent="1" vertex="1">
          <mxGeometry x="1560" y="1390" width="130" height="130" as="geometry" />
        </mxCell>
        <mxCell id="n_Ng3383ONINiVb1YW3M-58" style="edgeStyle=orthogonalEdgeStyle;rounded=0;orthogonalLoop=1;jettySize=auto;html=1;entryX=0.5;entryY=0;entryDx=0;entryDy=0;startArrow=block;startFill=1;" parent="1" source="n_Ng3383ONINiVb1YW3M-36" target="n_Ng3383ONINiVb1YW3M-57" edge="1">
          <mxGeometry relative="1" as="geometry" />
        </mxCell>
        <mxCell id="n_Ng3383ONINiVb1YW3M-60" style="edgeStyle=orthogonalEdgeStyle;rounded=0;orthogonalLoop=1;jettySize=auto;html=1;entryX=0;entryY=0.5;entryDx=0;entryDy=0;exitX=0.5;exitY=1;exitDx=0;exitDy=0;" parent="1" source="n_Ng3383ONINiVb1YW3M-12" target="n_Ng3383ONINiVb1YW3M-57" edge="1">
          <mxGeometry relative="1" as="geometry" />
        </mxCell>
        <mxCell id="n_Ng3383ONINiVb1YW3M-61" value="&lt;b style=&quot;font-size: 18px;&quot;&gt;BlockChain&lt;/b&gt;" style="text;html=1;align=center;verticalAlign=middle;whiteSpace=wrap;rounded=0;fontSize=18;" parent="1" vertex="1">
          <mxGeometry x="1664" y="1500" width="145" height="30" as="geometry" />
        </mxCell>
        <mxCell id="n_Ng3383ONINiVb1YW3M-63" style="edgeStyle=orthogonalEdgeStyle;rounded=0;orthogonalLoop=1;jettySize=auto;html=1;" parent="1" source="n_Ng3383ONINiVb1YW3M-62" target="n_Ng3383ONINiVb1YW3M-57" edge="1">
          <mxGeometry relative="1" as="geometry" />
        </mxCell>
        <mxCell id="n_Ng3383ONINiVb1YW3M-62" value="Lambda&lt;br&gt;function" style="outlineConnect=0;fontColor=#232F3E;gradientColor=none;fillColor=#D05C17;strokeColor=none;dashed=0;verticalLabelPosition=bottom;verticalAlign=top;align=center;html=1;fontSize=12;fontStyle=0;aspect=fixed;pointerEvents=1;shape=mxgraph.aws4.lambda_function;labelBackgroundColor=#ffffff;" parent="1" vertex="1">
          <mxGeometry x="1586" y="1680" width="78" height="78" as="geometry" />
        </mxCell>
        <mxCell id="n_Ng3383ONINiVb1YW3M-64" value="" style="sketch=0;outlineConnect=0;fontColor=#232F3E;gradientColor=none;fillColor=#E7157B;strokeColor=none;dashed=0;verticalLabelPosition=bottom;verticalAlign=top;align=center;html=1;fontSize=12;fontStyle=0;aspect=fixed;pointerEvents=1;shape=mxgraph.aws4.event_time_based;" parent="1" vertex="1">
          <mxGeometry x="1820" y="1691" width="78" height="78" as="geometry" />
        </mxCell>
        <mxCell id="n_Ng3383ONINiVb1YW3M-65" style="edgeStyle=orthogonalEdgeStyle;rounded=0;orthogonalLoop=1;jettySize=auto;html=1;entryX=1.077;entryY=0.641;entryDx=0;entryDy=0;entryPerimeter=0;" parent="1" source="n_Ng3383ONINiVb1YW3M-64" target="n_Ng3383ONINiVb1YW3M-62" edge="1">
          <mxGeometry relative="1" as="geometry" />
        </mxCell>
        <mxCell id="n_Ng3383ONINiVb1YW3M-66" value="&lt;b style=&quot;font-size: 18px;&quot;&gt;Cloud Watcher Event Time Based&lt;/b&gt;" style="text;html=1;align=center;verticalAlign=middle;whiteSpace=wrap;rounded=0;fontSize=18;" parent="1" vertex="1">
          <mxGeometry x="1790" y="1780" width="145" height="60" as="geometry" />
        </mxCell>
        <mxCell id="qXuImlfa8keDmFSq5YbG-3" style="edgeStyle=orthogonalEdgeStyle;rounded=0;orthogonalLoop=1;jettySize=auto;html=1;entryX=0;entryY=0.5;entryDx=0;entryDy=0;entryPerimeter=0;startArrow=block;startFill=1;" edge="1" parent="1" source="n_Ng3383ONINiVb1YW3M-12" target="qXuImlfa8keDmFSq5YbG-1">
          <mxGeometry relative="1" as="geometry" />
        </mxCell>
        <mxCell id="qXuImlfa8keDmFSq5YbG-4" value="" style="group" vertex="1" connectable="0" parent="1">
          <mxGeometry x="1426.5" y="1157" width="145" height="114" as="geometry" />
        </mxCell>
        <mxCell id="qXuImlfa8keDmFSq5YbG-1" value="" style="sketch=0;points=[[0,0,0],[0.25,0,0],[0.5,0,0],[0.75,0,0],[1,0,0],[0,1,0],[0.25,1,0],[0.5,1,0],[0.75,1,0],[1,1,0],[0,0.25,0],[0,0.5,0],[0,0.75,0],[1,0.25,0],[1,0.5,0],[1,0.75,0]];outlineConnect=0;fontColor=#232F3E;fillColor=#8C4FFF;strokeColor=#ffffff;dashed=0;verticalLabelPosition=bottom;verticalAlign=top;align=center;html=1;fontSize=12;fontStyle=0;aspect=fixed;shape=mxgraph.aws4.resourceIcon;resIcon=mxgraph.aws4.data_exchange;" vertex="1" parent="qXuImlfa8keDmFSq5YbG-4">
          <mxGeometry x="33.5" width="78" height="78" as="geometry" />
        </mxCell>
        <mxCell id="qXuImlfa8keDmFSq5YbG-2" value="&lt;b style=&quot;font-size: 18px;&quot;&gt;DeFi Exchange&lt;/b&gt;" style="text;html=1;align=center;verticalAlign=middle;whiteSpace=wrap;rounded=0;fontSize=18;" vertex="1" parent="qXuImlfa8keDmFSq5YbG-4">
          <mxGeometry y="84" width="145" height="30" as="geometry" />
        </mxCell>
        <mxCell id="qXuImlfa8keDmFSq5YbG-9" value="" style="group" vertex="1" connectable="0" parent="1">
          <mxGeometry x="975" y="851" width="145" height="133" as="geometry" />
        </mxCell>
        <mxCell id="qXuImlfa8keDmFSq5YbG-5" value="" style="shape=image;html=1;verticalAlign=top;verticalLabelPosition=bottom;labelBackgroundColor=#ffffff;imageAspect=0;aspect=fixed;image=https://cdn1.iconfinder.com/data/icons/cryptocurrency-blockchain-fintech-free/32/Cryptocurrency_digital_contract-128.png" vertex="1" parent="qXuImlfa8keDmFSq5YbG-9">
          <mxGeometry x="17" width="100.14117647058823" height="100.14117647058823" as="geometry" />
        </mxCell>
        <mxCell id="qXuImlfa8keDmFSq5YbG-11" value="" style="edgeStyle=orthogonalEdgeStyle;rounded=0;orthogonalLoop=1;jettySize=auto;html=1;" edge="1" parent="qXuImlfa8keDmFSq5YbG-9" source="qXuImlfa8keDmFSq5YbG-6" target="qXuImlfa8keDmFSq5YbG-5">
          <mxGeometry relative="1" as="geometry" />
        </mxCell>
        <mxCell id="qXuImlfa8keDmFSq5YbG-6" value="&lt;b style=&quot;font-size: 18px;&quot;&gt;MetaMask Wallet&lt;/b&gt;" style="text;html=1;align=center;verticalAlign=middle;whiteSpace=wrap;rounded=0;fontSize=18;" vertex="1" parent="qXuImlfa8keDmFSq5YbG-9">
          <mxGeometry y="109.52941176470588" width="145" height="23.470588235294116" as="geometry" />
        </mxCell>
        <mxCell id="qXuImlfa8keDmFSq5YbG-10" style="edgeStyle=orthogonalEdgeStyle;rounded=0;orthogonalLoop=1;jettySize=auto;html=1;exitX=1;exitY=0.25;exitDx=0;exitDy=0;entryX=0;entryY=0.75;entryDx=0;entryDy=0;startArrow=block;startFill=1;" edge="1" parent="1" source="n_Ng3383ONINiVb1YW3M-36" target="qXuImlfa8keDmFSq5YbG-5">
          <mxGeometry relative="1" as="geometry" />
        </mxCell>
        <mxCell id="qXuImlfa8keDmFSq5YbG-12" style="edgeStyle=orthogonalEdgeStyle;rounded=0;orthogonalLoop=1;jettySize=auto;html=1;entryX=1;entryY=0.5;entryDx=0;entryDy=0;startArrow=openThin;startFill=0;" edge="1" parent="1" source="qXuImlfa8keDmFSq5YbG-5" target="n_Ng3383ONINiVb1YW3M-57">
          <mxGeometry relative="1" as="geometry" />
        </mxCell>
      </root>
    </mxGraphModel>
  </diagram>
</mxfile>
